<svg width="14" height="17" viewBox="0 0 14 17" fill="none" xmlns="http://www.w3.org/2000/svg">
<path d="M8.08984 0.375C3.76562 0.375 0.25 3.92578 0.25 8.25C0.25 12.6094 3.76562 16.125 8.08984 16.125C10.2344 16.125 12.168 15.2812 13.5742 13.9102C13.75 13.7344 13.7852 13.4883 13.6797 13.2422C13.5742 13.0312 13.3281 12.9258 13.082 12.9609C12.7305 13.0312 12.3789 13.0312 12.0273 13.0312C8.61719 13.0312 5.83984 10.2891 5.83984 6.84375C5.83984 4.55859 7.10547 2.51953 9.00391 1.46484C9.21484 1.35938 9.32031 1.11328 9.25 0.867188C9.21484 0.621094 9.00391 0.445312 8.75781 0.410156C8.54688 0.410156 8.30078 0.410156 8.08984 0.410156V0.375Z" fill="#090C14"/>
</svg>
