<svg width="100" height="100" viewBox="0 0 100 100" fill="none" xmlns="http://www.w3.org/2000/svg">
<path d="M98.4811 45.9227L83.0858 31H69.6924L88.4458 49.379L68.7366 69.0448H82.5175L98.4295 53.012C98.8439 52.5575 99.2036 52.058 99.5015 51.5235C99.7564 51.0226 99.8806 50.468 99.863 49.9089V48.9754C99.8197 47.8225 99.3251 46.7298 98.4811 45.9227Z" fill="#75D9B3"/>
<path d="M43.0484 31.0763H29.6291L14.2338 45.999C13.3821 46.8216 12.8873 47.9328 12.8518 49.1022V50.0356C12.8343 50.5947 12.9585 51.1494 13.2135 51.6502C13.5113 52.1848 13.871 52.6842 14.2854 53.1387L30.2878 69.1211H44.0687L24.3466 49.4554L43.0484 31.0763Z" fill="#75D9B3"/>
<path d="M47.2006 69.121H57.1198L66.4706 31.0762H56.5515L47.2006 69.121Z" fill="#75D9B3"/>
<path d="M10.4874 31.0763H0V69.1211H10.4874V31.0763Z" fill="#75D9B3"/>
</svg>
