<svg width="48" height="48" viewBox="0 0 48 48" fill="none" xmlns="http://www.w3.org/2000/svg">
<path d="M44.4504 21.8837L38.3354 16.0002H33.0156L40.4644 23.2465L32.6359 31H38.1097L44.4299 24.6788C44.5945 24.4996 44.7374 24.3027 44.8557 24.0919C44.957 23.8945 45.0063 23.6758 44.9993 23.4553V23.0873C44.9822 22.6328 44.7857 22.202 44.4504 21.8837Z" fill="white"/>
<path d="M21.2989 16H15.9688L9.85377 21.8835C9.51548 22.2079 9.31892 22.646 9.30485 23.107V23.475C9.29787 23.6954 9.34722 23.9141 9.44849 24.1116C9.56681 24.3224 9.70967 24.5193 9.87428 24.6985L16.2304 30.9998H21.7042L13.8706 23.2462L21.2989 16Z" fill="white"/>
<path d="M22.8016 31H26.7415L30.4556 16.0002H26.5158L22.8016 31Z" fill="white"/>
<path d="M7.16561 16H3V30.9998H7.16561V16Z" fill="white"/>
</svg>
