<svg width="16" height="16" viewBox="0 0 16 16" fill="none" xmlns="http://www.w3.org/2000/svg">
<path d="M9.125 2.0625C9.125 2.69531 8.59766 3.1875 8 3.1875C7.36719 3.1875 6.875 2.69531 6.875 2.0625C6.875 1.46484 7.36719 0.9375 8 0.9375C8.59766 0.9375 9.125 1.46484 9.125 2.0625ZM11.375 8.25C11.375 10.1133 9.86328 11.625 8 11.625C6.13672 11.625 4.625 10.1133 4.625 8.25C4.625 6.38672 6.13672 4.875 8 4.875C9.86328 4.875 11.375 6.38672 11.375 8.25ZM8 15.5625C7.36719 15.5625 6.875 15.0703 6.875 14.4375C6.875 13.8398 7.36719 13.3125 8 13.3125C8.59766 13.3125 9.125 13.8398 9.125 14.4375C9.125 15.0703 8.59766 15.5625 8 15.5625ZM14.1875 9.375C13.5547 9.375 13.0625 8.88281 13.0625 8.25C13.0625 7.65234 13.5547 7.125 14.1875 7.125C14.7852 7.125 15.3125 7.65234 15.3125 8.25C15.3125 8.88281 14.7852 9.375 14.1875 9.375ZM0.6875 8.25C0.6875 7.65234 1.17969 7.125 1.8125 7.125C2.41016 7.125 2.9375 7.65234 2.9375 8.25C2.9375 8.88281 2.41016 9.375 1.8125 9.375C1.17969 9.375 0.6875 8.88281 0.6875 8.25ZM4.625 3.75C4.625 4.38281 4.09766 4.875 3.5 4.875C2.86719 4.875 2.375 4.38281 2.375 3.75C2.375 3.15234 2.86719 2.625 3.5 2.625C4.09766 2.625 4.625 3.15234 4.625 3.75ZM13.625 12.75C13.625 13.3828 13.0977 13.875 12.5 13.875C11.8672 13.875 11.375 13.3828 11.375 12.75C11.375 12.1523 11.8672 11.625 12.5 11.625C13.0977 11.625 13.625 12.1523 13.625 12.75ZM13.625 3.75C13.625 4.38281 13.0977 4.875 12.5 4.875C11.8672 4.875 11.375 4.38281 11.375 3.75C11.375 3.15234 11.8672 2.625 12.5 2.625C13.0977 2.625 13.625 3.15234 13.625 3.75ZM2.375 12.75C2.375 12.1523 2.86719 11.625 3.5 11.625C4.09766 11.625 4.625 12.1523 4.625 12.75C4.625 13.3828 4.09766 13.875 3.5 13.875C2.86719 13.875 2.375 13.3828 2.375 12.75Z" fill="white"/>
</svg>
