<svg xmlns="http://www.w3.org/2000/svg" xmlns:xlink="http://www.w3.org/1999/xlink" viewBox="0 0 321.89 40.52"><defs><style>.cls-1{fill:#fff;}.cls-2{fill:url(#linear-gradient);}.cls-3{fill:url(#linear-gradient-2);}.cls-4{fill:url(#linear-gradient-3);}</style><linearGradient id="linear-gradient" x1="287.02" y1="25.44" x2="311.15" y2="25.44" gradientUnits="userSpaceOnUse"><stop offset="0" stop-color="#ffcc95"/><stop offset="1" stop-color="#ff529b"/></linearGradient><linearGradient id="linear-gradient-2" x1="12.29" y1="25.44" x2="36.41" y2="25.44" xlink:href="#linear-gradient"/><linearGradient id="linear-gradient-3" x1="267.88" y1="25.44" x2="282.8" y2="25.44" xlink:href="#linear-gradient"/></defs><g id="Layer_2" data-name="Layer 2"><g id="Calque_1" data-name="Calque 1"><path class="cls-1" d="M320.35,8.88a5,5,0,0,1-3.62,1.45,5,5,0,0,1-3.68-1.49,5,5,0,0,1-1.49-3.67,5,5,0,0,1,1.61-3.77A5.1,5.1,0,0,1,316.73,0a5,5,0,0,1,3.65,1.51,5,5,0,0,1,1.51,3.66A5,5,0,0,1,320.35,8.88Zm-6.66-6.71a4.15,4.15,0,0,0-1.23,3,4.19,4.19,0,0,0,1.25,3.05,4.12,4.12,0,0,0,3,1.25,4.06,4.06,0,0,0,3-1.26,4.16,4.16,0,0,0,1.25-3,4.15,4.15,0,0,0-1.24-3,4,4,0,0,0-3-1.29A4.09,4.09,0,0,0,313.69,2.17ZM314.46,8V2.31h2.78a2.8,2.8,0,0,1,1.13.29A1.44,1.44,0,0,1,319.13,4a1.24,1.24,0,0,1-.4,1,1.9,1.9,0,0,1-1,.39,1.8,1.8,0,0,1,.81.33,1.54,1.54,0,0,1,.5,1.28v.51a.88.88,0,0,0,0,.17.53.53,0,0,0,0,.17l.05.16h-1.43a3.5,3.5,0,0,1-.09-.79,2.54,2.54,0,0,0-.1-.7.67.67,0,0,0-.42-.42,1.46,1.46,0,0,0-.51-.09l-.33,0H316V8Zm2.74-4.6a2.52,2.52,0,0,0-.87-.12H316V5h.58a1.36,1.36,0,0,0,.82-.21.76.76,0,0,0,.3-.68A.65.65,0,0,0,317.2,3.44Z"/><path class="cls-1" d="M51.26,40.52a18.29,18.29,0,0,1-6.4-1.09,14.93,14.93,0,0,1-5-3.07,14.12,14.12,0,0,1-3.32-4.75,15.43,15.43,0,0,1-1.2-6.17,15.27,15.27,0,0,1,1.2-6.15,14.47,14.47,0,0,1,3.32-4.76,14.8,14.8,0,0,1,5-3.08,18.06,18.06,0,0,1,6.4-1.09h4.36A18,18,0,0,1,62,11.45a14.85,14.85,0,0,1,5,3.08,14.47,14.47,0,0,1,3.32,4.76,15.27,15.27,0,0,1,1.2,6.15,15.43,15.43,0,0,1-1.2,6.17A14.12,14.12,0,0,1,67,36.36a15,15,0,0,1-5,3.07,18.23,18.23,0,0,1-6.36,1.09Zm4.92-7.8a8,8,0,0,0,2.92-.53,6.9,6.9,0,0,0,2.32-1.49,6.58,6.58,0,0,0,1.51-2.29,8.59,8.59,0,0,0,0-5.94,6.69,6.69,0,0,0-3.83-3.83,7.77,7.77,0,0,0-2.92-.53H50.7a7.77,7.77,0,0,0-2.92.53,6.8,6.8,0,0,0-2.32,1.51,7,7,0,0,0-1.53,2.32,7.7,7.7,0,0,0-.56,3,8.13,8.13,0,0,0,.53,3,6.58,6.58,0,0,0,1.51,2.29,7,7,0,0,0,2.32,1.49,8.13,8.13,0,0,0,3,.53Z"/><path class="cls-1" d="M89.16,40.52a15.31,15.31,0,0,1-5.52-1,13.31,13.31,0,0,1-4.36-2.66,11.91,11.91,0,0,1-2.87-4.11,13.11,13.11,0,0,1-1-5.27V10.36h8.17V26.92a5.49,5.49,0,0,0,5.75,5.8h6.41a5.49,5.49,0,0,0,5.75-5.8V10.36h8.16V27.52a13.28,13.28,0,0,1-1,5.27,12,12,0,0,1-2.87,4.11,13.24,13.24,0,0,1-4.39,2.66,15.34,15.34,0,0,1-5.49,1Z"/><path class="cls-1" d="M117.33,40.52q-3.48,0-3.48-3.3V35.37a5.28,5.28,0,0,1,.44-2.32,6.38,6.38,0,0,1,1.83-2L131,17.92H113.85V10.36h26.86c2.07,0,3.11.88,3.11,2.64v1.53a3.62,3.62,0,0,1-.51,2,7.71,7.71,0,0,1-1.58,1.67L124.89,32.91h18.93v7.61Z"/><path class="cls-1" d="M217.31,40.52a4.62,4.62,0,0,1-2.55-.61A10.25,10.25,0,0,1,212.67,38L197.13,21.17V40.52h-7.89V13.79q0-3.43,3.76-3.43H195a7.82,7.82,0,0,1,1.62.14,4.71,4.71,0,0,1,1.25.42,5,5,0,0,1,1.05.69,11.34,11.34,0,0,1,1,1l14.25,15.35V10.36H222V37.41q0,3.11-3,3.11Z"/><path class="cls-1" d="M249.46,12.59a4,4,0,0,0-3.62-2.23H244a3.93,3.93,0,0,0-3.61,2.23L225,40.52h9l7-13.14.08-.18h0l4-7.47,5.15,9.7h-4.54l-3.42,6.45h11.39l2.51,4.64h8.81Z"/><path class="cls-1" d="M170.82,12.59a4,4,0,0,0-3.62-2.23h-1.86a3.93,3.93,0,0,0-3.61,2.23L146.32,40.52h9l7.11-13.4,0,0h0l3.91-7.35,5.15,9.7h-4.53l-3.42,6.45H174.9l2.51,4.64h8.81Z"/><path class="cls-2" d="M310.08,22.19,298.16,10.36h-10.4l14.53,14.57L287,40.52h10.67L310,27.85a6.94,6.94,0,0,0,.84-1.18,2.81,2.81,0,0,0,.28-1.28v-.74A3.59,3.59,0,0,0,310.08,22.19Z"/><path class="cls-3" d="M35.67,10.36H25.28L13.35,22.19a3.58,3.58,0,0,0-1.06,2.46v.74a2.81,2.81,0,0,0,.27,1.28,6.94,6.94,0,0,0,.84,1.18L25.74,40.52H36.41L21.15,24.93Z"/><polygon class="cls-4" points="267.88 40.52 275.56 40.52 282.8 10.36 275.12 10.36 267.88 40.52"/><rect class="cls-1" y="10.36" width="8.12" height="30.16"/></g></g></svg>