<svg width="276" height="35" viewBox="0 0 276 35" fill="none" xmlns="http://www.w3.org/2000/svg">
<path d="M43.8242 34C41.9594 34.0171 40.1065 33.7071 38.3526 33.0847C36.7688 32.5141 35.3159 31.6407 34.0779 30.5152C32.8579 29.3922 31.891 28.0306 31.2395 26.5181C30.5325 24.8803 30.1802 23.1159 30.205 21.3371C30.1783 19.5636 30.5307 17.8043 31.2395 16.1729C31.8981 14.6668 32.8642 13.3093 34.0779 12.1843C35.3102 11.0452 36.7642 10.1626 38.3526 9.58954C40.1054 8.96305 41.9591 8.65294 43.8242 8.67423H47.5518C49.4056 8.65515 51.2476 8.96525 52.9892 9.58954C54.5776 10.1626 56.0316 11.0452 57.2639 12.1843C58.4776 13.3093 59.4437 14.6668 60.1023 16.1729C60.8111 17.8043 61.1635 19.5636 61.1367 21.3371C61.1616 23.1159 60.8093 24.8803 60.1023 26.5181C59.4508 28.0306 58.4839 29.3922 57.2639 30.5152C56.0259 31.6407 54.573 32.5141 52.9892 33.0847C51.2465 33.7049 49.4052 34.0149 47.5518 34H43.8242ZM48.0305 27.4502C48.8841 27.4614 49.7318 27.3103 50.527 27.0052C51.2653 26.7239 51.9395 26.3015 52.5104 25.7624C53.0763 25.2166 53.5166 24.5581 53.8014 23.8311C54.4168 22.2234 54.4168 20.4509 53.8014 18.8432C53.5147 18.1122 53.0749 17.4484 52.5104 16.895C51.9448 16.3433 51.2696 15.9117 50.527 15.6271C49.7307 15.3259 48.8838 15.1749 48.0305 15.182H43.354C42.498 15.1751 41.6483 15.3261 40.849 15.6271C40.1075 15.9138 39.4327 16.3451 38.8656 16.895C38.3014 17.452 37.8566 18.1145 37.5575 18.8432C37.2322 19.6439 37.0724 20.5003 37.0873 21.3623C37.0712 22.2229 37.225 23.0784 37.5404 23.8815C37.8253 24.6085 38.2655 25.267 38.8314 25.8128C39.4023 26.3519 40.0765 26.7743 40.8148 27.0556C41.632 27.367 42.5033 27.5182 43.3797 27.5006L48.0305 27.4502Z" fill="white"/>
<path d="M76.235 34C74.6257 34.0172 73.0266 33.7469 71.5157 33.2023C70.1382 32.6968 68.8727 31.9356 67.7882 30.9602C66.726 29.9957 65.8864 28.8189 65.326 27.509C64.7375 26.1093 64.4465 24.6063 64.471 23.0921V8.67423H71.4474V22.5799C71.4093 23.2264 71.5103 23.8735 71.7438 24.4791C71.9774 25.0847 72.3382 25.6352 72.8028 26.0946C73.2674 26.5541 73.8253 26.9123 74.4402 27.1459C75.0552 27.3795 75.7133 27.4832 76.3718 27.4502H81.8434C82.5015 27.4833 83.1593 27.3796 83.7739 27.146C84.3884 26.9123 84.9458 26.554 85.4098 26.0943C85.8737 25.6347 86.2337 25.0841 86.4662 24.4785C86.6988 23.8729 86.7987 23.226 86.7593 22.5799V8.67423H93.7442V23.0921C93.7687 24.6063 93.4777 26.1093 92.8892 27.509C92.3288 28.8189 91.4892 29.9957 90.427 30.9602C89.3363 31.9359 88.0651 32.6971 86.6824 33.2023C85.1765 33.7435 83.5836 34.0137 81.9802 34H76.235Z" fill="white"/>
<path d="M100.31 34C98.3266 34 97.3349 33.0763 97.3349 31.2289V29.6755C97.3138 29.0069 97.4422 28.3419 97.7111 27.7273C98.1068 27.0659 98.6399 26.4937 99.2756 26.0479L112.014 15.0561H97.3349V8.70783H120.299C122.077 8.70783 122.957 9.44677 122.957 10.9331V12.2178C122.983 12.8075 122.831 13.3914 122.521 13.8973C122.148 14.4304 121.692 14.9034 121.171 15.2996L106.773 27.6098H122.932V34H100.31Z" fill="white"/>
<path d="M185.787 34C185.025 34.0416 184.267 33.8635 183.607 33.4878C182.94 33.0253 182.339 32.4774 181.82 31.8587L168.534 17.7515V34H161.789V11.5713C161.789 9.65671 162.866 8.69104 165.003 8.69104H166.671C167.135 8.68667 167.599 8.72602 168.056 8.80859C168.784 8.94272 169.462 9.2644 170.022 9.74069C170.324 10.0029 170.61 10.2834 170.877 10.5804L183.051 23.47V8.67423H189.754V31.3885C189.754 33.1295 188.899 34 187.189 34H185.787Z" fill="white"/>
<path d="M213.273 10.5468C212.994 9.97667 212.554 9.49722 212.005 9.16532C211.457 8.83342 210.823 8.66298 210.178 8.67424H208.597C207.954 8.66906 207.322 8.842 206.775 9.17321C206.228 9.50442 205.786 9.9805 205.502 10.5468L192.336 34H200.03L206.015 22.9662L206.083 22.815L209.503 16.5424L213.906 24.6876H210.033L207.101 30.1037H216.847L218.984 34H226.525L213.273 10.5468Z" fill="white"/>
<path d="M146.015 10.5468C145.737 9.97733 145.299 9.49819 144.751 9.16626C144.204 8.83434 143.572 8.66357 142.929 8.67424H141.339C140.696 8.66906 140.064 8.84199 139.517 9.17321C138.97 9.50442 138.528 9.9805 138.244 10.5468L125.078 34H132.772L138.859 22.7479L142.194 16.5676L146.597 24.7128H142.732L139.8 30.1289H149.538L151.675 34.0252H159.215L146.015 10.5468Z" fill="white"/>
<path d="M273.683 7.44825C273.063 8.052 272.273 8.46104 271.415 8.62351C270.557 8.78599 269.669 8.6946 268.864 8.3609C268.059 8.02719 267.374 7.4662 266.894 6.7491C266.414 6.03199 266.161 5.19107 266.168 4.33292C266.154 3.73968 266.27 3.15035 266.509 2.60537C266.748 2.06039 267.104 1.57264 267.553 1.17559C268.367 0.405034 269.458 -0.0176486 270.589 -2.96539e-06C271.466 0.00255955 272.323 0.261141 273.051 0.742947C273.779 1.22475 274.344 1.90805 274.676 2.7061C275.007 3.50416 275.09 4.38099 274.913 5.2253C274.737 6.06961 274.309 6.84332 273.683 7.44825ZM267.99 1.82219C267.319 2.49535 266.944 3.39962 266.944 4.34133C266.944 5.28304 267.319 6.18731 267.99 6.86047C268.326 7.19255 268.725 7.45608 269.165 7.63591C269.606 7.81575 270.078 7.90834 270.554 7.90834C271.031 7.90834 271.503 7.81575 271.943 7.63591C272.383 7.45608 272.783 7.19255 273.119 6.86047C273.464 6.52612 273.736 6.12697 273.919 5.6869C274.103 5.24683 274.194 4.77488 274.188 4.29933C274.192 3.83034 274.099 3.36539 273.916 2.93246C273.732 2.49953 273.461 2.10757 273.119 1.78019C272.793 1.43259 272.396 1.15645 271.954 0.969788C271.512 0.78313 271.035 0.690152 270.554 0.696948C270.071 0.700148 269.593 0.801817 269.152 0.995491C268.71 1.18917 268.315 1.47066 267.99 1.82219ZM268.656 6.7513V1.93973H271.025C271.361 1.95575 271.69 2.04159 271.991 2.19164C272.201 2.3005 272.375 2.46735 272.49 2.67169C272.606 2.87603 272.658 3.10901 272.64 3.34207C272.651 3.49822 272.625 3.65466 272.566 3.79995C272.507 3.94524 272.416 4.0757 272.298 4.18178C272.051 4.36679 271.754 4.47757 271.444 4.50085C271.692 4.54347 271.928 4.63798 272.136 4.77797C272.289 4.91326 272.408 5.08145 272.483 5.26937C272.559 5.45729 272.589 5.65985 272.572 5.86121V6.28944C272.568 6.33694 272.568 6.38471 272.572 6.43221C272.569 6.47974 272.569 6.52741 272.572 6.57494V6.7093H271.349C271.303 6.49098 271.277 6.26893 271.273 6.04594C271.271 5.84437 271.242 5.64387 271.187 5.44973C271.159 5.36779 271.112 5.29336 271.049 5.23219C270.987 5.17102 270.911 5.12478 270.828 5.09706C270.686 5.05471 270.54 5.02934 270.392 5.02149H269.982V6.70092L268.656 6.7513ZM270.99 2.88861C270.75 2.81252 270.499 2.77842 270.247 2.78785H269.982V4.18178H270.477C270.724 4.19546 270.969 4.13384 271.178 4.00542C271.264 3.93685 271.33 3.84916 271.374 3.74975C271.417 3.65034 271.435 3.54217 271.426 3.43442C271.429 3.3079 271.388 3.18429 271.308 3.08473C271.229 2.98516 271.116 2.91584 270.99 2.88861Z" fill="white"/>
<path d="M265.1 18.6081L254.909 8.67423H246.043L258.457 20.9089L245.411 34H254.533L265.066 23.3272C265.34 23.0247 265.578 22.6922 265.775 22.3364C265.944 22.003 266.026 21.6337 266.015 21.2616V20.6402C265.986 19.8727 265.658 19.1453 265.1 18.6081Z" fill="white"/>
<path d="M30.4957 8.67423H21.6129L11.422 18.6081C10.8583 19.1557 10.5307 19.8953 10.5072 20.6737V21.2951C10.4956 21.6673 10.5778 22.0365 10.7466 22.37C10.9438 22.7258 11.1819 23.0583 11.4562 23.3608L22.0489 34H31.1711L18.1162 20.9089L30.4957 8.67423Z" fill="white"/>
<path d="M229.021 34H235.587L241.777 8.67424H235.211L229.021 34Z" fill="white"/>
<path d="M6.94211 8.67424H0V34H6.94211V8.67424Z" fill="white"/>
</svg>
