<svg width="275" height="34" viewBox="0 0 275 34" fill="none" xmlns="http://www.w3.org/2000/svg">
<g clip-path="url(#clip0_220_618)">
<path d="M43.8237 34C41.9589 34.0171 40.106 33.7071 38.3521 33.0847C36.7684 32.5141 35.3155 31.6407 34.0774 30.5152C32.8575 29.3922 31.8905 28.0306 31.239 26.5181C30.532 24.8803 30.1797 23.1159 30.2045 21.3371C30.1778 19.5636 30.5302 17.8043 31.239 16.1729C31.8977 14.6668 32.8637 13.3093 34.0774 12.1843C35.3097 11.0451 36.7637 10.1626 38.3521 9.58954C40.1049 8.96304 41.9586 8.65294 43.8237 8.67423H47.5513C49.4051 8.65514 51.2472 8.96524 52.9887 9.58954C54.5771 10.1626 56.0312 11.0451 57.2634 12.1843C58.4772 13.3093 59.4432 14.6668 60.1018 16.1729C60.8106 17.8043 61.163 19.5636 61.1363 21.3371C61.1611 23.1159 60.8088 24.8803 60.1018 26.5181C59.4503 28.0306 58.4834 29.3922 57.2634 30.5152C56.0254 31.6407 54.5725 32.5141 52.9887 33.0847C51.2461 33.7049 49.4048 34.0149 47.5513 34H43.8237ZM48.0301 27.4502C48.8836 27.4614 49.7314 27.3103 50.5265 27.0052C51.2648 26.7239 51.939 26.3015 52.5099 25.7624C53.0759 25.2166 53.5161 24.5581 53.8009 23.8311C54.4163 22.2234 54.4163 20.4509 53.8009 18.8432C53.5143 18.1122 53.0744 17.4484 52.5099 16.895C51.9443 16.3433 51.2692 15.9117 50.5265 15.6271C49.7302 15.3259 48.8833 15.1749 48.0301 15.182H43.3535C42.4975 15.1751 41.6478 15.326 40.8486 15.6271C40.107 15.9138 39.4322 16.3451 38.8651 16.895C38.3009 17.452 37.8561 18.1145 37.5571 18.8432C37.2318 19.6439 37.0719 20.5003 37.0868 21.3623C37.0707 22.2229 37.2246 23.0784 37.5399 23.8815C37.8248 24.6085 38.265 25.267 38.8309 25.8128C39.4018 26.3519 40.076 26.7743 40.8144 27.0556C41.6315 27.367 42.5029 27.5182 43.3792 27.5006L48.0301 27.4502Z" fill="#0B0B0B"/>
<path d="M76.2342 34C74.6248 34.0172 73.0257 33.7469 71.5149 33.2023C70.1374 32.6968 68.8718 31.9356 67.7873 30.9602C66.7252 29.9957 65.8856 28.8189 65.3251 27.509C64.7366 26.1093 64.4457 24.6063 64.4702 23.0921V8.67423H71.4465V22.5799C71.4084 23.2264 71.5094 23.8735 71.743 24.4791C71.9765 25.0847 72.3373 25.6352 72.8019 26.0946C73.2665 26.5541 73.8244 26.9123 74.4394 27.1459C75.0543 27.3795 75.7125 27.4832 76.3709 27.4502H81.8426C82.5007 27.4833 83.1585 27.3796 83.773 27.146C84.3875 26.9123 84.945 26.554 85.4089 26.0943C85.8728 25.6347 86.2328 25.0841 86.4654 24.4785C86.6979 23.8729 86.7978 23.226 86.7585 22.5799V8.67423H93.7433V23.0921C93.7678 24.6063 93.4769 26.1093 92.8884 27.509C92.3279 28.8189 91.4883 29.9957 90.4261 30.9602C89.3354 31.9359 88.0642 32.6971 86.6815 33.2023C85.1756 33.7435 83.5828 34.0137 81.9793 34H76.2342Z" fill="#0B0B0B"/>
<path d="M100.309 34C98.326 34 97.3343 33.0763 97.3343 31.2289V29.6755C97.3132 29.0069 97.4416 28.3419 97.7104 27.7273C98.1062 27.0659 98.6393 26.4937 99.275 26.0479L112.014 15.0561H97.3343V8.70782H120.298C122.076 8.70782 122.957 9.44677 122.957 10.9331V12.2178C122.982 12.8075 122.83 13.3914 122.521 13.8972C122.147 14.4303 121.691 14.9034 121.17 15.2996L106.773 27.6098H122.931V34H100.309Z" fill="#0B0B0B"/>
<path d="M185.787 34C185.025 34.0416 184.267 33.8635 183.607 33.4878C182.94 33.0253 182.339 32.4774 181.82 31.8587L168.535 17.7515V34H161.789V11.5713C161.789 9.65671 162.866 8.69104 165.004 8.69104H166.671C167.135 8.68667 167.599 8.72602 168.056 8.80859C168.784 8.94272 169.462 9.2644 170.022 9.74068C170.325 10.0029 170.61 10.2834 170.877 10.5804L183.051 23.47V8.67423H189.754V31.3885C189.754 33.1295 188.899 34 187.189 34H185.787Z" fill="#0B0B0B"/>
<path d="M213.273 10.5468C212.994 9.97667 212.554 9.49722 212.005 9.16532C211.457 8.83342 210.823 8.66298 210.179 8.67425H208.597C207.954 8.66906 207.323 8.842 206.775 9.17321C206.228 9.50442 205.787 9.9805 205.502 10.5468L192.336 34H200.03L206.015 22.9662L206.083 22.815L209.503 16.5424L213.906 24.6876H210.033L207.101 30.1037H216.847L218.984 34H226.525L213.273 10.5468Z" fill="#0B0B0B"/>
<path d="M146.016 10.5468C145.738 9.97733 145.299 9.49818 144.752 9.16626C144.205 8.83433 143.572 8.66356 142.929 8.67424H141.339C140.696 8.66905 140.065 8.84199 139.517 9.1732C138.97 9.50442 138.529 9.98049 138.244 10.5468L125.078 34H132.773L138.86 22.7478L142.194 16.5676L146.597 24.7128H142.733L139.8 30.1289H149.538L151.675 34.0252H159.216L146.016 10.5468Z" fill="#0B0B0B"/>
<path d="M273.684 7.44825C273.063 8.052 272.274 8.46104 271.416 8.62351C270.558 8.78599 269.67 8.6946 268.865 8.3609C268.06 8.02719 267.374 7.4662 266.894 6.7491C266.414 6.03199 266.162 5.19107 266.169 4.33292C266.155 3.73968 266.271 3.15035 266.51 2.60537C266.749 2.06039 267.105 1.57264 267.554 1.17559C268.368 0.405034 269.459 -0.0176486 270.589 -2.96527e-06C271.467 0.00255955 272.324 0.261141 273.052 0.742947C273.779 1.22475 274.345 1.90805 274.676 2.7061C275.008 3.50416 275.091 4.38099 274.914 5.2253C274.737 6.06961 274.309 6.84332 273.684 7.44825ZM267.99 1.82219C267.32 2.49535 266.944 3.39962 266.944 4.34133C266.944 5.28304 267.32 6.18731 267.99 6.86047C268.326 7.19255 268.726 7.45608 269.166 7.63591C269.606 7.81575 270.078 7.90834 270.555 7.90834C271.032 7.90834 271.504 7.81575 271.944 7.63591C272.384 7.45608 272.784 7.19255 273.12 6.86047C273.464 6.52612 273.736 6.12697 273.92 5.6869C274.104 5.24683 274.195 4.77488 274.189 4.29933C274.193 3.83034 274.1 3.36539 273.916 2.93246C273.733 2.49953 273.462 2.10757 273.12 1.78019C272.794 1.43259 272.397 1.15645 271.955 0.969788C271.513 0.78313 271.036 0.690152 270.555 0.696948C270.072 0.700148 269.594 0.801817 269.153 0.995491C268.711 1.18917 268.315 1.47066 267.99 1.82219ZM268.657 6.7513V1.93973H271.025C271.362 1.95575 271.691 2.04159 271.991 2.19164C272.202 2.3005 272.376 2.46735 272.491 2.67169C272.606 2.87603 272.659 3.10901 272.641 3.34207C272.651 3.49822 272.626 3.65466 272.567 3.79995C272.508 3.94524 272.416 4.0757 272.299 4.18178C272.051 4.36679 271.755 4.47757 271.444 4.50085C271.693 4.54347 271.929 4.63798 272.137 4.77797C272.29 4.91326 272.408 5.08145 272.484 5.26937C272.56 5.45729 272.59 5.65985 272.573 5.86121V6.28944C272.569 6.33694 272.569 6.38471 272.573 6.43221C272.57 6.47974 272.57 6.52741 272.573 6.57494V6.7093H271.35C271.304 6.49098 271.278 6.26893 271.273 6.04594C271.272 5.84437 271.243 5.64387 271.188 5.44973C271.159 5.36779 271.112 5.29336 271.05 5.23219C270.988 5.17102 270.912 5.12478 270.829 5.09706C270.687 5.05471 270.541 5.02934 270.393 5.02149H270.111H269.982V6.70092L268.657 6.7513ZM270.991 2.88861C270.751 2.81252 270.499 2.77842 270.247 2.78785H269.982V4.18178H270.478C270.725 4.19546 270.97 4.13384 271.179 4.00542C271.264 3.93685 271.331 3.84916 271.374 3.74975C271.417 3.65034 271.436 3.54217 271.427 3.43442C271.43 3.3079 271.388 3.18429 271.309 3.08473C271.229 2.98516 271.117 2.91584 270.991 2.88861Z" fill="#0B0B0B"/>
<path d="M265.099 18.6081L254.909 8.67423H246.043L258.457 20.9089L245.41 34H254.532L265.065 23.3272C265.34 23.0247 265.578 22.6922 265.775 22.3364C265.944 22.003 266.026 21.6337 266.014 21.2616V20.6402C265.986 19.8727 265.658 19.1453 265.099 18.6081Z" fill="#0B0B0B"/>
<path d="M30.4954 8.67423H21.6126L11.4217 18.6081C10.858 19.1557 10.5304 19.8953 10.5069 20.6737V21.2951C10.4953 21.6673 10.5776 22.0365 10.7463 22.37C10.9435 22.7258 11.1816 23.0583 11.4559 23.3608L22.0486 34H31.1708L18.1159 20.9089L30.4954 8.67423Z" fill="#0B0B0B"/>
<path d="M229.021 34H235.587L241.777 8.67424H235.211L229.021 34Z" fill="#0B0B0B"/>
<path d="M6.94211 8.67424H0V34H6.94211V8.67424Z" fill="#0B0B0B"/>
</g>
<defs>
<clipPath id="clip0_220_618">
<rect width="275" height="34" fill="white"/>
</clipPath>
</defs>
</svg>
